<svg width="200" height="46" viewBox="0 0 200 46" fill="none" xmlns="http://www.w3.org/2000/svg">
<g clip-path="url(#clip0)">
<path d="M91.287 28.895H77.243L80.7 18.48L82.509 18.479C86.605 18.479 88.946 17.321 90.116 14.428L82.043 14.43L85.873 2.855H80.754C78.999 6.905 76.658 9.22 74.902 10.956C70.221 15.006 64.955 14.428 59.103 14.428L47.986 28.317V14.429H37.454L38.624 28.895H26.7L31.491 14.429H15.219C7.612 14.429 0.0059967 18.48 0.0059967 26.581C0.0059967 34.682 10.539 36.418 15.805 30.632C15.805 32.367 16.975 33.524 20.486 33.524H50.328L62.615 18.48H70.162L66.711 28.896C66.126 31.79 67.296 33.525 70.807 33.525L105.747 33.574C112.769 33.574 117.033 31.211 117.618 23.688C117.682 21.782 117.032 19.638 115.862 18.481H122.91C126.415 18.481 128.755 17.327 129.926 14.445H103.861C90.784 14.936 90.141 27.197 91.287 28.895ZM15.804 28.895C12.879 28.895 11.123 28.316 11.123 26.581C11.123 25.423 13.333 19.547 13.639 18.479H19.245L15.804 28.895ZM105.33 29.475C102.404 29.475 100.064 29.475 100.064 27.16C100.064 26.628 101.923 21.289 102.869 18.39L108.977 18.474L105.33 29.475Z" fill="#161616"/>
<path d="M126.232 33.788C128.175 33.788 129.751 32.2322 129.751 30.313C129.751 28.3938 128.175 26.838 126.232 26.838C124.289 26.838 122.713 28.3938 122.713 30.313C122.713 32.2322 124.289 33.788 126.232 33.788Z" fill="#161616"/>
<path d="M174.176 25.032C172.977 25.86 172.257 27.011 172.004 28.47C171.955 28.727 171.93 28.989 171.93 29.252C171.93 30.001 172.105 30.667 172.454 31.251H166.524L169.022 23.717H161.193L162.363 20.18H160.018C158.826 20.18 157.802 20.432 156.946 20.932C155.912 21.541 155.392 22.401 155.392 23.514C155.392 24.122 155.579 24.663 155.951 25.126C156.263 25.514 156.666 25.845 157.189 25.978L155.456 31.251H147.842C148.708 31.008 149.479 30.484 150.142 29.673C150.79 28.891 151.136 28.11 151.171 27.338C151.24 25.602 150.414 24.494 148.693 24.019C147.991 23.816 146.354 23.707 144.177 23.707L145.336 20.21H140.061L133.8 39.15H139.059L143.407 26.035C144.267 26.04 144.743 26.209 145.232 26.614C145.727 27.02 145.974 27.49 145.974 28.019C145.974 28.88 145.751 29.582 145.306 30.136C144.975 30.552 144.495 30.903 143.856 31.195C143.401 31.368 142.951 31.546 142.506 31.729C142.536 32.956 143.145 33.569 144.336 33.569H154.99C156.651 33.574 157.789 33.985 158.664 31.345L160.423 26.035H163.41L161.858 30.744C161.729 31.1 161.67 31.432 161.67 31.743C161.67 32.96 162.403 33.568 163.871 33.568H176.195C176.977 33.731 177.856 33.809 178.83 33.801C180.789 33.791 182.387 33.346 183.614 32.465C184.895 31.55 185.608 30.284 185.741 28.671C185.781 28.255 185.697 27.766 185.494 27.197C185.291 26.633 185.034 26.247 184.712 26.035H196.522C198.456 26.035 199.614 25.258 200 23.715H179.281C177.153 23.716 175.449 24.153 174.176 25.032ZM179.538 31.528C179.404 31.538 179.246 31.543 179.063 31.543C177.514 31.543 176.743 31.127 176.743 30.297C176.743 30.124 176.778 29.941 176.842 29.748L178.078 26.038H181.36L179.538 31.528Z" fill="#161616"/>
<path d="M184.16 24.968L184.622 24.969C184.351 24.948 184.16 24.968 184.16 24.968Z" fill="#161616"/>
<path d="M91.287 28.105H77.243L80.7 17.69L82.509 17.689C86.605 17.689 88.946 16.531 90.116 13.638L82.043 13.64L85.873 2.065H80.754C78.999 6.115 76.658 8.43 74.902 10.166C70.221 14.216 64.955 13.638 59.103 13.638L47.986 27.526V13.639H37.454L38.624 28.105H26.7L31.491 13.639H15.219C7.612 13.639 0.0059967 17.69 0.0059967 25.791C0.0059967 33.892 10.539 35.628 15.805 29.842C15.805 31.577 16.975 32.734 20.486 32.734H50.328L62.616 17.689H70.163L66.712 28.105C66.127 30.999 67.297 32.734 70.808 32.734L105.748 32.783C112.77 32.783 117.034 30.42 117.619 22.897C117.683 20.991 117.033 18.847 115.863 17.69H122.911C126.416 17.69 128.756 16.536 129.927 13.654H103.862C90.784 14.146 90.141 26.406 91.287 28.105ZM15.804 28.105C12.879 28.105 11.123 27.526 11.123 25.791C11.123 24.633 13.333 18.757 13.639 17.689H19.245L15.804 28.105ZM105.33 28.684C102.404 28.684 100.064 28.684 100.064 26.369C100.064 25.837 101.923 20.498 102.869 17.599L108.977 17.683L105.33 28.684Z" fill="url(#paint0_linear)"/>
<path d="M126.232 32.998C128.175 32.998 129.751 31.4422 129.751 29.523C129.751 27.6038 128.175 26.048 126.232 26.048C124.289 26.048 122.713 27.6038 122.713 29.523C122.713 31.4422 124.289 32.998 126.232 32.998Z" fill="url(#paint1_linear)"/>
<path d="M174.176 24.242C172.977 25.07 172.257 26.221 172.004 27.68C171.955 27.937 171.93 28.199 171.93 28.462C171.93 29.211 172.105 29.877 172.454 30.461H166.524L169.022 22.927H161.193L162.363 19.39H160.018C158.826 19.39 157.802 19.642 156.946 20.142C155.912 20.751 155.392 21.611 155.392 22.724C155.392 23.332 155.579 23.873 155.951 24.336C156.263 24.724 156.666 25.055 157.189 25.188L155.456 30.461H147.842C148.708 30.218 149.479 29.694 150.142 28.883C150.79 28.101 151.136 27.32 151.171 26.548C151.24 24.812 150.414 23.704 148.693 23.229C147.991 23.026 146.354 22.917 144.177 22.917L145.336 19.42H140.061L133.8 38.36H139.059L143.407 25.245C144.267 25.25 144.743 25.419 145.232 25.824C145.727 26.23 145.974 26.7 145.974 27.229C145.974 28.09 145.751 28.792 145.306 29.346C144.975 29.762 144.495 30.113 143.856 30.405C143.401 30.578 142.951 30.756 142.506 30.939C142.536 32.166 143.145 32.779 144.336 32.779H154.99C156.651 32.784 157.789 33.195 158.664 30.555L160.423 25.245H163.41L161.858 29.954C161.729 30.31 161.67 30.642 161.67 30.953C161.67 32.17 162.403 32.778 163.871 32.778H176.195C176.977 32.941 177.856 33.019 178.83 33.011C180.789 33.001 182.387 32.556 183.614 31.675C184.895 30.76 185.608 29.494 185.741 27.881C185.781 27.465 185.697 26.976 185.494 26.407C185.291 25.843 185.034 25.457 184.712 25.245H196.522C198.456 25.245 199.614 24.468 200 22.925H179.281C177.153 22.926 175.449 23.363 174.176 24.242ZM179.538 30.737C179.404 30.747 179.246 30.752 179.063 30.752C177.514 30.752 176.743 30.336 176.743 29.506C176.743 29.333 176.778 29.15 176.842 28.957L178.078 25.247H181.36L179.538 30.737Z" fill="url(#paint2_linear)"/>
<path d="M103.862 13.653C95.017 13.986 91.864 19.7 91.101 23.89C92.05 19.775 95.31 14.573 103.737 14.256L129.65 14.259C129.752 14.061 129.838 13.87 129.926 13.653H103.862Z" fill="white"/>
<path d="M47.862 28.129L58.98 14.241C64.831 14.241 70.098 14.819 74.779 10.769C76.535 9.033 78.875 6.718 80.631 2.668H85.675L85.875 2.065H80.756C79.001 6.115 76.66 8.43 74.904 10.166C70.223 14.216 64.957 13.638 59.105 13.638L47.986 27.526V13.639H37.454L37.503 14.242H47.862V28.129Z" fill="white"/>
<path d="M89.842 14.242C89.943 14.044 90.028 13.855 90.116 13.638L82.049 13.639L81.849 14.242H89.842Z" fill="white"/>
<path d="M15.679 28.708L19.12 18.292H19.046L15.805 28.105C12.88 28.105 11.124 27.526 11.124 25.791C11.124 25.726 11.133 25.64 11.147 25.547C11.057 25.915 11 26.216 11 26.395C10.998 28.129 12.754 28.708 15.679 28.708Z" fill="white"/>
<path d="M105.205 29.287L108.852 18.286L108.777 18.285L105.329 28.684C102.415 28.684 100.085 28.681 100.066 26.393C99.987 26.68 99.938 26.889 99.938 26.972C99.939 29.287 102.279 29.287 105.205 29.287Z" fill="white"/>
<path d="M91.518 28.708C91.427 28.573 91.349 28.364 91.285 28.105H77.247L77.047 28.708H91.518Z" fill="white"/>
<path d="M69.962 18.292L66.711 28.105C66.684 28.237 66.681 28.354 66.661 28.482L70.037 18.293H69.962V18.292Z" fill="white"/>
<path d="M117.493 23.5C117.435 24.246 117.331 24.927 117.201 25.574C117.4 24.763 117.541 23.876 117.618 22.897C117.672 21.283 117.189 19.029 115.868 17.702H115.248C116.63 18.709 117.536 21.031 117.493 23.5Z" fill="white"/>
<path d="M38.671 28.708L38.622 28.105H26.705L26.505 28.708H38.671Z" fill="white"/>
<path d="M15.094 14.242H31.291L31.491 13.639H15.219C8.389 13.639 1.577 16.916 0.253998 23.448C1.86 17.312 8.474 14.242 15.094 14.242Z" fill="white"/>
<path d="M126.232 26.048C124.425 26.048 122.954 27.397 122.753 29.128C123.19 27.699 124.517 26.651 126.107 26.651C128.051 26.651 129.626 28.207 129.626 30.126C129.626 30.261 129.601 30.39 129.586 30.521C129.683 30.203 129.751 29.872 129.751 29.523C129.751 27.604 128.175 26.048 126.232 26.048Z" fill="white"/>
<path d="M145.181 29.95C145.527 29.519 145.735 28.996 145.812 28.381C145.701 28.742 145.533 29.064 145.306 29.347C144.975 29.763 144.495 30.114 143.856 30.406C143.401 30.579 142.951 30.757 142.506 30.94C142.511 31.133 142.535 31.306 142.568 31.469C142.953 31.312 143.339 31.158 143.731 31.009C144.37 30.717 144.85 30.366 145.181 29.95Z" fill="white"/>
<path d="M163.486 25.246H163.412L161.858 29.955C161.763 30.217 161.718 30.463 161.694 30.7C161.709 30.652 161.715 30.607 161.733 30.558L163.486 25.246Z" fill="white"/>
<path d="M178.938 31.355C179.121 31.355 179.279 31.35 179.413 31.34L181.437 25.247H181.362L179.539 30.737C179.405 30.747 179.247 30.752 179.064 30.752C177.515 30.752 176.744 30.336 176.744 29.506C176.744 29.489 176.753 29.47 176.754 29.453L176.718 29.56C176.654 29.753 176.619 29.936 176.619 30.109C176.618 30.94 177.39 31.355 178.938 31.355Z" fill="white"/>
<path d="M172.729 31.063C172.615 30.872 172.526 30.669 172.449 30.46H166.523L166.323 31.063H172.729Z" fill="white"/>
<path d="M185.617 28.486C185.601 28.699 185.545 28.889 185.507 29.09C185.624 28.711 185.706 28.311 185.742 27.883C185.782 27.467 185.703 26.976 185.495 26.409C185.172 25.529 184.881 25.378 184.713 25.247H184.066C185.228 25.628 185.692 27.507 185.617 28.486Z" fill="white"/>
<path d="M145.138 20.022L145.337 19.419H140.062L133.8 38.36H133.874L139.938 20.022H145.138Z" fill="white"/>
<path d="M148.57 23.831C150.291 24.306 151.124 25.423 151.054 27.16C151.052 27.215 151.036 27.27 151.03 27.325C151.109 27.068 151.161 26.802 151.173 26.547C151.242 24.811 150.416 23.703 148.695 23.228C148.001 23.027 146.319 22.919 144.181 22.916L143.981 23.519C146.158 23.519 147.868 23.628 148.57 23.831Z" fill="white"/>
<path d="M174.051 24.845C175.325 23.966 177.029 23.529 179.156 23.529H199.787C199.872 23.342 199.946 23.144 200 22.926H179.281C177.154 22.926 175.45 23.363 174.176 24.242C172.977 25.07 172.257 26.221 172.004 27.68C171.991 27.75 171.994 27.821 171.984 27.892C172.292 26.623 172.965 25.595 174.051 24.845Z" fill="white"/>
<path d="M168.822 23.529L169.021 22.926H161.196L160.996 23.529H168.822Z" fill="white"/>
<path d="M155.333 31.063L157.257 25.212C157.234 25.206 157.214 25.195 157.191 25.188L155.457 30.459H147.853C147.459 30.734 147.039 30.937 146.593 31.062H155.333V31.063Z" fill="white"/>
<path d="M156.821 20.744C157.676 20.244 158.701 19.992 159.893 19.992H162.163L162.363 19.389H160.018C158.826 19.389 157.802 19.641 156.946 20.141C156.028 20.681 155.515 21.424 155.412 22.362C155.634 21.704 156.109 21.163 156.821 20.744Z" fill="white"/>
<path d="M5.038 43.833C4.747 44.514 4.319 45.046 3.753 45.428C3.187 45.809 2.54 46 1.812 46C1.303 46 0.895 45.879 0.588 45.638C0.28 45.396 0.0959998 45.054 0.0329998 44.609C-0.0300002 44.164 0.0319998 43.648 0.219 43.061L0.418 42.464C0.618 41.862 0.902 41.331 1.268 40.872C1.634 40.413 2.059 40.059 2.54 39.81C3.022 39.561 3.525 39.437 4.048 39.437C4.753 39.437 5.256 39.628 5.56 40.009C5.863 40.391 5.933 40.931 5.771 41.63H4.665C4.765 41.171 4.741 40.84 4.594 40.637C4.446 40.434 4.165 40.332 3.75 40.332C3.267 40.332 2.838 40.508 2.462 40.861C2.086 41.214 1.781 41.731 1.549 42.413L1.361 42.98C1.131 43.671 1.079 44.197 1.205 44.561C1.331 44.925 1.633 45.105 2.11 45.105C2.546 45.105 2.906 45.007 3.19 44.811C3.475 44.615 3.722 44.289 3.932 43.833H5.038Z" fill="#161616"/>
<path d="M10.035 44.425H7.562L6.55 45.912H5.396L9.934 39.525H10.93L11.222 45.912H10.064L10.035 44.425ZM8.171 43.53H10.022L9.978 40.881L8.171 43.53Z" fill="#161616"/>
<path d="M15.737 43.456H14.5L13.683 45.912H12.573L14.698 39.525H16.944C17.681 39.525 18.195 39.69 18.485 40.021C18.776 40.351 18.817 40.83 18.608 41.456C18.466 41.883 18.243 42.241 17.942 42.53C17.64 42.818 17.279 43.04 16.859 43.195L17.408 45.855L17.389 45.912H16.2L15.737 43.456ZM14.798 42.561H15.938C16.312 42.561 16.636 42.466 16.909 42.278C17.182 42.089 17.374 41.831 17.483 41.504C17.597 41.162 17.587 40.897 17.455 40.71C17.323 40.523 17.065 40.426 16.681 40.421H15.51L14.798 42.561Z" fill="#161616"/>
<path d="M23.572 43.544L22.784 45.913H21.674L23.799 39.526H26.242C26.956 39.526 27.46 39.712 27.756 40.084C28.052 40.456 28.098 40.948 27.895 41.56C27.687 42.186 27.319 42.674 26.792 43.022C26.265 43.37 25.632 43.544 24.892 43.544H23.572ZM23.87 42.649H25.203C25.598 42.649 25.93 42.556 26.199 42.37C26.468 42.185 26.661 41.916 26.778 41.565C26.893 41.22 26.879 40.945 26.737 40.738C26.595 40.532 26.341 40.426 25.974 40.42H24.61L23.87 42.649Z" fill="#161616"/>
<path d="M31.333 44.425H28.859L27.847 45.912H26.693L31.231 39.525H32.227L32.519 45.912H31.36L31.333 44.425ZM29.469 43.53H31.32L31.276 40.881L29.469 43.53Z" fill="#161616"/>
<path d="M37.035 43.456H35.798L34.981 45.912H33.871L35.996 39.525H38.242C38.979 39.525 39.493 39.69 39.783 40.021C40.074 40.351 40.115 40.83 39.906 41.456C39.764 41.883 39.541 42.241 39.24 42.53C38.938 42.818 38.577 43.04 38.157 43.195L38.706 45.855L38.687 45.912H37.498L37.035 43.456ZM36.096 42.561H37.236C37.61 42.561 37.934 42.466 38.207 42.278C38.48 42.089 38.672 41.831 38.781 41.504C38.895 41.162 38.885 40.897 38.753 40.71C38.621 40.523 38.363 40.426 37.979 40.421H36.808L36.096 42.561Z" fill="#161616"/>
<path d="M46.328 40.421H44.337L42.51 45.913H41.409L43.236 40.421H41.262L41.56 39.526H46.626L46.328 40.421Z" fill="#161616"/>
<path d="M49.783 44.267C49.876 43.986 49.849 43.77 49.703 43.618C49.556 43.466 49.251 43.312 48.788 43.157C48.325 43.002 47.973 42.829 47.732 42.639C47.272 42.273 47.139 41.797 47.335 41.209C47.506 40.694 47.857 40.27 48.387 39.937C48.918 39.604 49.518 39.437 50.188 39.437C50.632 39.437 51.001 39.519 51.295 39.683C51.589 39.847 51.784 40.08 51.882 40.383C51.98 40.685 51.968 41.021 51.845 41.389H50.74C50.851 41.056 50.833 40.795 50.687 40.606C50.54 40.418 50.273 40.323 49.884 40.323C49.521 40.323 49.214 40.4 48.962 40.555C48.71 40.71 48.538 40.926 48.446 41.204C48.368 41.438 48.411 41.633 48.576 41.789C48.74 41.946 49.046 42.098 49.494 42.245C49.942 42.393 50.285 42.561 50.523 42.75C50.762 42.938 50.91 43.155 50.969 43.399C51.028 43.643 51.003 43.929 50.894 44.256C50.717 44.788 50.372 45.212 49.859 45.526C49.349 45.843 48.743 46 48.044 46C47.582 46 47.186 45.914 46.855 45.744C46.524 45.572 46.301 45.337 46.187 45.035C46.072 44.734 46.081 44.383 46.215 43.982H47.325C47.204 44.345 47.231 44.625 47.404 44.824C47.577 45.023 47.888 45.122 48.336 45.122C48.722 45.122 49.038 45.044 49.285 44.887C49.531 44.732 49.697 44.525 49.783 44.267Z" fill="#161616"/>
<path d="M58.377 39.526L58.59 44.421L62.057 39.526H63.491L61.366 45.913H60.261L60.962 43.808L62.009 40.992L58.485 45.914H57.691L57.446 40.997L56.62 43.809L55.919 45.914H54.814L56.939 39.527H58.377V39.526Z" fill="#161616"/>
<path d="M67.456 44.425H64.982L63.97 45.912H62.816L67.354 39.525H68.35L68.642 45.912H67.484L67.456 44.425ZM65.591 43.53H67.442L67.398 40.881L65.591 43.53Z" fill="#161616"/>
<path d="M73.158 43.456H71.921L71.104 45.912H69.994L72.119 39.525H74.365C75.102 39.525 75.616 39.69 75.906 40.021C76.197 40.351 76.238 40.83 76.029 41.456C75.887 41.883 75.664 42.241 75.363 42.53C75.061 42.818 74.7 43.04 74.28 43.195L74.829 45.855L74.81 45.912H73.621L73.158 43.456ZM72.219 42.561H73.359C73.733 42.561 74.057 42.466 74.33 42.278C74.603 42.089 74.795 41.831 74.904 41.504C75.018 41.162 75.008 40.897 74.876 40.71C74.744 40.523 74.486 40.426 74.102 40.421H72.931L72.219 42.561Z" fill="#161616"/>
<path d="M78.98 43.153L78.001 43.921L77.338 45.912H76.228L78.353 39.525H79.463L78.466 42.521L79.333 41.762L81.946 39.525H83.288L79.974 42.354L81.299 45.911H79.983L78.98 43.153Z" fill="#161616"/>
<path d="M87.201 43.061H84.578L83.924 45.026H86.99L86.695 45.912H82.52L84.645 39.525H88.79L88.492 40.42H85.457L84.87 42.183H87.493L87.201 43.061Z" fill="#161616"/>
<path d="M94.758 40.421H92.767L90.94 45.913H89.839L91.666 40.421H89.692L89.99 39.526H95.056L94.758 40.421Z" fill="#161616"/>
<path d="M96.295 43.544L95.507 45.913H94.397L96.522 39.526H98.965C99.679 39.526 100.183 39.712 100.479 40.084C100.775 40.456 100.821 40.948 100.618 41.56C100.41 42.186 100.042 42.674 99.515 43.022C98.988 43.37 98.355 43.544 97.615 43.544H96.295ZM96.593 42.649H97.926C98.321 42.649 98.653 42.556 98.922 42.37C99.191 42.185 99.384 41.916 99.501 41.565C99.616 41.22 99.602 40.945 99.46 40.738C99.318 40.532 99.064 40.426 98.697 40.42H97.333L96.593 42.649Z" fill="#161616"/>
<path d="M102.172 45.026H105.071L104.776 45.912H100.767L102.892 39.525H104.002L102.172 45.026Z" fill="#161616"/>
<path d="M110.409 44.425H107.935L106.923 45.912H105.769L110.307 39.525H111.303L111.595 45.912H110.437L110.409 44.425ZM108.545 43.53H110.396L110.352 40.881L108.545 43.53Z" fill="#161616"/>
<path d="M118.42 43.833C118.129 44.514 117.701 45.046 117.135 45.428C116.57 45.809 115.923 46 115.195 46C114.686 46 114.278 45.879 113.971 45.638C113.663 45.396 113.479 45.054 113.416 44.609C113.353 44.164 113.415 43.648 113.602 43.061L113.801 42.464C114.001 41.862 114.285 41.331 114.651 40.872C115.017 40.413 115.442 40.059 115.923 39.81C116.405 39.561 116.908 39.437 117.431 39.437C118.136 39.437 118.639 39.628 118.943 40.009C119.246 40.391 119.316 40.931 119.154 41.63H118.049C118.149 41.171 118.125 40.84 117.978 40.637C117.83 40.434 117.549 40.332 117.134 40.332C116.652 40.332 116.222 40.508 115.846 40.861C115.47 41.214 115.165 41.731 114.933 42.413L114.745 42.979C114.515 43.67 114.463 44.196 114.589 44.56C114.715 44.924 115.017 45.104 115.494 45.104C115.93 45.104 116.29 45.006 116.574 44.81C116.859 44.614 117.106 44.288 117.316 43.832H118.42V43.833Z" fill="#161616"/>
<path d="M124.03 43.061H121.407L120.753 45.026H123.819L123.524 45.912H119.348L121.473 39.525H125.618L125.32 40.42H122.285L121.698 42.183H124.321L124.03 43.061Z" fill="#161616"/>
<path d="M5.028 43.212C4.737 43.893 4.309 44.425 3.743 44.807C3.178 45.188 2.531 45.379 1.802 45.379C1.293 45.379 0.885 45.258 0.578 45.017C0.27 44.775 0.0860002 44.433 0.0230002 43.988C-0.0399998 43.543 0.0230002 43.028 0.21 42.44L0.409 41.843C0.609 41.241 0.893 40.71 1.259 40.251C1.625 39.792 2.05 39.438 2.531 39.189C3.013 38.94 3.516 38.816 4.039 38.816C4.744 38.816 5.247 39.007 5.551 39.388C5.854 39.77 5.924 40.31 5.762 41.009H4.655C4.755 40.55 4.731 40.219 4.584 40.016C4.436 39.813 4.155 39.711 3.74 39.711C3.257 39.711 2.828 39.887 2.452 40.24C2.076 40.593 1.771 41.11 1.539 41.792L1.351 42.358C1.121 43.049 1.069 43.575 1.195 43.939C1.321 44.303 1.623 44.483 2.1 44.483C2.536 44.483 2.896 44.385 3.18 44.189C3.465 43.993 3.712 43.667 3.922 43.211H5.028V43.212Z" fill="url(#paint3_linear)"/>
<path d="M10.026 43.804H7.552L6.54 45.291H5.386L9.924 38.904H10.92L11.212 45.291H10.054L10.026 43.804ZM8.161 42.91H10.012L9.968 40.26L8.161 42.91Z" fill="url(#paint4_linear)"/>
<path d="M15.728 42.835H14.491L13.674 45.291H12.564L14.689 38.904H16.935C17.672 38.904 18.186 39.069 18.476 39.4C18.767 39.73 18.808 40.209 18.599 40.835C18.457 41.262 18.234 41.62 17.933 41.909C17.631 42.197 17.27 42.419 16.85 42.574L17.399 45.234L17.38 45.291H16.191L15.728 42.835ZM14.788 41.94H15.928C16.302 41.94 16.626 41.845 16.899 41.657C17.172 41.468 17.364 41.21 17.473 40.883C17.587 40.541 17.577 40.276 17.445 40.089C17.313 39.902 17.055 39.805 16.671 39.799H15.5L14.788 41.94Z" fill="url(#paint5_linear)"/>
<path d="M23.562 42.923L22.774 45.292H21.664L23.789 38.905H26.232C26.946 38.905 27.45 39.091 27.746 39.463C28.042 39.835 28.088 40.327 27.885 40.939C27.677 41.565 27.309 42.053 26.782 42.401C26.255 42.749 25.622 42.923 24.882 42.923H23.562ZM23.86 42.028H25.193C25.588 42.028 25.92 41.935 26.189 41.749C26.458 41.564 26.651 41.295 26.768 40.944C26.883 40.599 26.869 40.324 26.727 40.117C26.585 39.911 26.331 39.805 25.964 39.799H24.6L23.86 42.028Z" fill="url(#paint6_linear)"/>
<path d="M31.324 43.804H28.85L27.838 45.291H26.684L31.222 38.904H32.218L32.51 45.291H31.352L31.324 43.804ZM29.459 42.91H31.31L31.266 40.261L29.459 42.91Z" fill="url(#paint7_linear)"/>
<path d="M37.025 42.835H35.788L34.971 45.291H33.861L35.986 38.904H38.232C38.969 38.904 39.483 39.069 39.773 39.4C40.064 39.73 40.105 40.209 39.896 40.835C39.754 41.262 39.531 41.62 39.23 41.909C38.928 42.197 38.567 42.419 38.147 42.574L38.696 45.234L38.677 45.291H37.488L37.025 42.835ZM36.086 41.94H37.226C37.6 41.94 37.924 41.845 38.197 41.657C38.47 41.468 38.662 41.21 38.771 40.883C38.885 40.541 38.875 40.276 38.743 40.089C38.611 39.902 38.353 39.805 37.969 39.799H36.798L36.086 41.94Z" fill="url(#paint8_linear)"/>
<path d="M46.319 39.8H44.328L42.5 45.291H41.399L43.226 39.799H41.252L41.55 38.904H46.616L46.319 39.8Z" fill="url(#paint9_linear)"/>
<path d="M49.773 43.646C49.866 43.365 49.839 43.149 49.693 42.997C49.546 42.845 49.241 42.691 48.778 42.536C48.315 42.381 47.963 42.208 47.722 42.018C47.262 41.652 47.129 41.176 47.325 40.588C47.496 40.073 47.847 39.649 48.377 39.316C48.908 38.983 49.508 38.816 50.178 38.816C50.622 38.816 50.991 38.898 51.285 39.062C51.579 39.226 51.774 39.459 51.872 39.762C51.97 40.064 51.958 40.4 51.835 40.768H50.73C50.841 40.435 50.823 40.174 50.677 39.985C50.53 39.797 50.263 39.702 49.874 39.702C49.511 39.702 49.204 39.779 48.952 39.934C48.7 40.089 48.528 40.305 48.436 40.583C48.358 40.817 48.401 41.012 48.566 41.168C48.73 41.325 49.036 41.477 49.484 41.624C49.932 41.772 50.275 41.94 50.513 42.129C50.752 42.317 50.9 42.534 50.959 42.778C51.018 43.022 50.993 43.308 50.884 43.635C50.707 44.167 50.362 44.591 49.849 44.905C49.337 45.22 48.731 45.377 48.032 45.377C47.57 45.377 47.174 45.291 46.843 45.121C46.512 44.949 46.289 44.714 46.175 44.412C46.06 44.111 46.069 43.76 46.203 43.359H47.313C47.192 43.722 47.219 44.002 47.392 44.201C47.565 44.4 47.876 44.499 48.324 44.499C48.71 44.499 49.026 44.421 49.273 44.264C49.521 44.111 49.687 43.904 49.773 43.646Z" fill="url(#paint10_linear)"/>
<path d="M58.368 38.905L58.581 43.8L62.048 38.905H63.482L61.357 45.292H60.252L60.953 43.187L62 40.371L58.476 45.293H57.682L57.437 40.376L56.611 43.188L55.91 45.293H54.805L56.93 38.906H58.368V38.905Z" fill="url(#paint11_linear)"/>
<path d="M67.446 43.804H64.972L63.96 45.291H62.806L67.344 38.904H68.34L68.632 45.291H67.474L67.446 43.804ZM65.582 42.91H67.433L67.389 40.261L65.582 42.91Z" fill="url(#paint12_linear)"/>
<path d="M73.148 42.835H71.911L71.094 45.291H69.984L72.109 38.904H74.355C75.092 38.904 75.606 39.069 75.896 39.4C76.187 39.73 76.228 40.209 76.019 40.835C75.877 41.262 75.654 41.62 75.353 41.909C75.051 42.197 74.69 42.419 74.27 42.574L74.819 45.234L74.8 45.291H73.611L73.148 42.835ZM72.209 41.94H73.349C73.723 41.94 74.047 41.845 74.32 41.657C74.593 41.468 74.785 41.21 74.894 40.883C75.008 40.541 74.998 40.276 74.866 40.089C74.734 39.902 74.476 39.805 74.092 39.799H72.921L72.209 41.94Z" fill="url(#paint13_linear)"/>
<path d="M78.97 42.532L77.991 43.3L77.328 45.291H76.218L78.343 38.904H79.453L78.456 41.9L79.323 41.141L81.936 38.904H83.278L79.964 41.733L81.289 45.29H79.973L78.97 42.532Z" fill="url(#paint14_linear)"/>
<path d="M87.192 42.44H84.569L83.915 44.405H86.981L86.686 45.291H82.51L84.635 38.904H88.78L88.483 39.8H85.448L84.861 41.563H87.484L87.192 42.44Z" fill="url(#paint15_linear)"/>
<path d="M94.748 39.8H92.757L90.93 45.292H89.829L91.656 39.8H89.682L89.98 38.905H95.046L94.748 39.8Z" fill="url(#paint16_linear)"/>
<path d="M96.285 42.923L95.497 45.292H94.387L96.512 38.905H98.955C99.669 38.905 100.173 39.091 100.469 39.463C100.765 39.835 100.811 40.327 100.608 40.939C100.4 41.565 100.032 42.053 99.505 42.401C98.978 42.749 98.345 42.923 97.605 42.923H96.285ZM96.583 42.028H97.916C98.311 42.028 98.643 41.935 98.912 41.749C99.181 41.564 99.374 41.295 99.491 40.944C99.606 40.599 99.592 40.324 99.45 40.117C99.308 39.911 99.054 39.805 98.687 39.799H97.323L96.583 42.028Z" fill="url(#paint17_linear)"/>
<path d="M102.162 44.405H105.061L104.766 45.291H100.757L102.882 38.904H103.992L102.162 44.405Z" fill="url(#paint18_linear)"/>
<path d="M110.4 43.804H107.926L106.914 45.291H105.76L110.298 38.904H111.294L111.586 45.291H110.428L110.4 43.804ZM108.535 42.91H110.386L110.342 40.261L108.535 42.91Z" fill="url(#paint19_linear)"/>
<path d="M118.411 43.212C118.12 43.893 117.692 44.425 117.126 44.807C116.561 45.188 115.914 45.379 115.185 45.379C114.676 45.379 114.268 45.258 113.961 45.017C113.653 44.775 113.469 44.433 113.406 43.988C113.343 43.543 113.405 43.027 113.592 42.44L113.791 41.843C113.991 41.241 114.275 40.71 114.641 40.251C115.007 39.792 115.432 39.438 115.913 39.189C116.395 38.94 116.898 38.816 117.421 38.816C118.126 38.816 118.629 39.007 118.933 39.388C119.236 39.77 119.306 40.31 119.144 41.009H118.039C118.139 40.55 118.115 40.219 117.968 40.016C117.82 39.813 117.539 39.711 117.124 39.711C116.642 39.711 116.212 39.887 115.836 40.24C115.46 40.593 115.155 41.11 114.923 41.792L114.735 42.358C114.505 43.049 114.453 43.575 114.579 43.939C114.705 44.303 115.007 44.483 115.484 44.483C115.92 44.483 116.28 44.385 116.564 44.189C116.849 43.993 117.096 43.667 117.306 43.211H118.411V43.212Z" fill="url(#paint20_linear)"/>
<path d="M124.02 42.44H121.397L120.743 44.405H123.809L123.514 45.291H119.338L121.463 38.904H125.608L125.31 39.799H122.275L121.688 41.562H124.311L124.02 42.44Z" fill="url(#paint21_linear)"/>
<path d="M104.965 5.857H159.687L159.688 5.856H104.966L104.965 5.857Z" fill="#414042"/>
<path d="M163.188 1H112.399C111.154 1 110.188 1.171 109.385 1.5C107.684 2.199 106.724 3.622 105.449 5.705L104.954 6.513L104.658 6.997L101.596 12C118.536 12 135.474 12 152.414 12C156.186 12 157.356 10.157 159.186 7.284L159.368 6.998L159.684 6.501L162.869 1.501L163.188 1Z" fill="#161616"/>
<path d="M104.963 5.86099H159.684L159.687 5.85699H104.965L104.963 5.86099Z" fill="#414042"/>
<path fill-rule="evenodd" clip-rule="evenodd" d="M159.186 6.283L159.366 6H104.657L101.596 11C118.536 11 135.474 11 152.414 11C156.186 11 157.356 9.156 159.186 6.283Z" fill="#F7D131"/>
<path d="M159.684 5.5L162.869 0.5L163.188 0H112.399C111.154 0 110.188 0.171 109.385 0.5C107.684 1.199 106.724 2.622 105.449 4.705L104.954 5.513L104.658 5.997L104.657 6H159.366L159.368 5.997L159.684 5.5Z" fill="#0C6AC6"/>
<path d="M162.869 0.5L163.188 0H112.399C111.154 0 110.188 0.171 109.385 0.5C109.053 0.636 108.756 0.809 108.472 1H162.55L162.869 0.5Z" fill="#1982D8"/>
<path fill-rule="evenodd" clip-rule="evenodd" d="M158.726 7C158.876 6.768 159.028 6.531 159.186 6.283L159.366 6H104.657L104.045 7H107.473H158.726Z" fill="#FFE578"/>
</g>
<defs>
<linearGradient id="paint0_linear" x1="64.9661" y1="16.9989" x2="64.9661" y2="31.8046" gradientUnits="userSpaceOnUse">
<stop stop-color="#F2F2F2"/>
<stop offset="1" stop-color="#AFAFAF"/>
</linearGradient>
<linearGradient id="paint1_linear" x1="126.232" y1="16.9989" x2="126.232" y2="31.8047" gradientUnits="userSpaceOnUse">
<stop stop-color="#F2F2F2"/>
<stop offset="1" stop-color="#AFAFAF"/>
</linearGradient>
<linearGradient id="paint2_linear" x1="166.9" y1="19.9933" x2="166.9" y2="33.1358" gradientUnits="userSpaceOnUse">
<stop stop-color="#F2F2F2"/>
<stop offset="1" stop-color="#AFAFAF"/>
</linearGradient>
<linearGradient id="paint3_linear" x1="3.8894" y1="39.0042" x2="3.8894" y2="45.5422" gradientUnits="userSpaceOnUse">
<stop stop-color="#F2F2F2"/>
<stop offset="1" stop-color="#AFAFAF"/>
</linearGradient>
<linearGradient id="paint4_linear" x1="10.3893" y1="39.0042" x2="10.3893" y2="45.5422" gradientUnits="userSpaceOnUse">
<stop stop-color="#F2F2F2"/>
<stop offset="1" stop-color="#AFAFAF"/>
</linearGradient>
<linearGradient id="paint5_linear" x1="17.0624" y1="39.0042" x2="17.0624" y2="45.5422" gradientUnits="userSpaceOnUse">
<stop stop-color="#F2F2F2"/>
<stop offset="1" stop-color="#AFAFAF"/>
</linearGradient>
<linearGradient id="paint6_linear" x1="26.1412" y1="39.0042" x2="26.1412" y2="45.5422" gradientUnits="userSpaceOnUse">
<stop stop-color="#F2F2F2"/>
<stop offset="1" stop-color="#AFAFAF"/>
</linearGradient>
<linearGradient id="paint7_linear" x1="31.6871" y1="39.0042" x2="31.6871" y2="45.5422" gradientUnits="userSpaceOnUse">
<stop stop-color="#F2F2F2"/>
<stop offset="1" stop-color="#AFAFAF"/>
</linearGradient>
<linearGradient id="paint8_linear" x1="38.3602" y1="39.0042" x2="38.3602" y2="45.5422" gradientUnits="userSpaceOnUse">
<stop stop-color="#F2F2F2"/>
<stop offset="1" stop-color="#AFAFAF"/>
</linearGradient>
<linearGradient id="paint9_linear" x1="44.0491" y1="39.0042" x2="44.0491" y2="45.5422" gradientUnits="userSpaceOnUse">
<stop stop-color="#F2F2F2"/>
<stop offset="1" stop-color="#AFAFAF"/>
</linearGradient>
<linearGradient id="paint10_linear" x1="50.0401" y1="39.0042" x2="50.0401" y2="45.5422" gradientUnits="userSpaceOnUse">
<stop stop-color="#F2F2F2"/>
<stop offset="1" stop-color="#AFAFAF"/>
</linearGradient>
<linearGradient id="paint11_linear" x1="60.1712" y1="39.0042" x2="60.1712" y2="45.5422" gradientUnits="userSpaceOnUse">
<stop stop-color="#F2F2F2"/>
<stop offset="1" stop-color="#AFAFAF"/>
</linearGradient>
<linearGradient id="paint12_linear" x1="67.8098" y1="39.0042" x2="67.8098" y2="45.5422" gradientUnits="userSpaceOnUse">
<stop stop-color="#F2F2F2"/>
<stop offset="1" stop-color="#AFAFAF"/>
</linearGradient>
<linearGradient id="paint13_linear" x1="74.4829" y1="39.0042" x2="74.4829" y2="45.5422" gradientUnits="userSpaceOnUse">
<stop stop-color="#F2F2F2"/>
<stop offset="1" stop-color="#AFAFAF"/>
</linearGradient>
<linearGradient id="paint14_linear" x1="80.8446" y1="39.0042" x2="80.8446" y2="45.5422" gradientUnits="userSpaceOnUse">
<stop stop-color="#F2F2F2"/>
<stop offset="1" stop-color="#AFAFAF"/>
</linearGradient>
<linearGradient id="paint15_linear" x1="86.6887" y1="39.0042" x2="86.6887" y2="45.5422" gradientUnits="userSpaceOnUse">
<stop stop-color="#F2F2F2"/>
<stop offset="1" stop-color="#AFAFAF"/>
</linearGradient>
<linearGradient id="paint16_linear" x1="92.4785" y1="39.0042" x2="92.4785" y2="45.5422" gradientUnits="userSpaceOnUse">
<stop stop-color="#F2F2F2"/>
<stop offset="1" stop-color="#AFAFAF"/>
</linearGradient>
<linearGradient id="paint17_linear" x1="98.8643" y1="39.0042" x2="98.8643" y2="45.5422" gradientUnits="userSpaceOnUse">
<stop stop-color="#F2F2F2"/>
<stop offset="1" stop-color="#AFAFAF"/>
</linearGradient>
<linearGradient id="paint18_linear" x1="104.853" y1="39.0042" x2="104.853" y2="45.5422" gradientUnits="userSpaceOnUse">
<stop stop-color="#F2F2F2"/>
<stop offset="1" stop-color="#AFAFAF"/>
</linearGradient>
<linearGradient id="paint19_linear" x1="110.763" y1="39.0042" x2="110.763" y2="45.5422" gradientUnits="userSpaceOnUse">
<stop stop-color="#F2F2F2"/>
<stop offset="1" stop-color="#AFAFAF"/>
</linearGradient>
<linearGradient id="paint20_linear" x1="117.272" y1="39.0042" x2="117.272" y2="45.5422" gradientUnits="userSpaceOnUse">
<stop stop-color="#F2F2F2"/>
<stop offset="1" stop-color="#AFAFAF"/>
</linearGradient>
<linearGradient id="paint21_linear" x1="123.518" y1="39.0042" x2="123.518" y2="45.5422" gradientUnits="userSpaceOnUse">
<stop stop-color="#F2F2F2"/>
<stop offset="1" stop-color="#AFAFAF"/>
</linearGradient>
<clipPath id="clip0">
<path d="M0 0H200V46H0V0Z" fill="white"/>
</clipPath>
</defs>
</svg>